<svg xmlns="http://www.w3.org/2000/svg" xml:space="preserve" width="2000" height="91" data-id="lg_2XV3yz5f07FbHaAK2P" data-version="1" viewBox="0 0 2000 91"><g data-padding="20"><g transform="translate(178.4 9.105)scale(.79988)"><rect width="343.153" height="93.79" x="598.021" y="-65.006" fill="none" rx="0" ry="0" transform="matrix(.97 0 0 .97 312.55 60.92)"/><path fill="#232323" d="M930.38 69.042q-18.25 0-26.9-7.76-8.64-7.75-8.64-22.13 0-14.46 8.64-22.86 8.65-8.4 26.9-8.4 25.52 0 34.16 17.53-7.26 2.5-17.04 7.51-2.34-4.52-7.39-6.7t-10.3-2.18q-7.75 0-11.55 4.08-3.79 4.07-3.79 10.05 0 6.46 4.08 10.54t12.48 4.08q6.7 0 10.66-2.22 3.95-2.22 5.81-7.07 6.63 3.56 16.96 8-4.04 9.77-13.48 13.65-9.45 3.88-20.6 3.88m63.08.01q-13.81 0-20.31-6.35-6.51-6.34-6.51-16.67 0-10.1 6.51-16.4 6.5-6.3 20.31-6.3 9.29 0 15.55 3.03t9.24 8.16q2.99 5.13 2.99 11.51 0 10.42-6.9 16.72-6.91 6.3-20.88 6.3m.32-13.74q5.25 0 7.84-2.5 2.58-2.5 2.58-6.7 0-3.96-2.58-6.5-2.59-2.55-7.84-2.55t-7.67 2.5q-2.42 2.51-2.42 6.55 0 4.2 2.42 6.7t7.67 2.5m45.89-31.17 2.42 11.95q3.39-12.19 16.88-12.19 2.34 0 4.53.32l-2.59 18.09q-5.81-2.18-9.53-2.18-4.6 0-6.78 2.75-2.19 2.74-2.19 7.35v-.08l-.08 5.33q0 5.73.33 12.76h-19.31q.65-11.63.65-21.97t-.65-22.13q5.33.24 8.16.24 2.99 0 8.16-.24m63.31.16v14.3q-7.43-.49-13.57-.73l-.08 8.56q0 4.36 1.9 6.83 1.9 2.46 6.74 2.46 1.86 0 3.56-.32-.33 2.98-.33 6.05 0 1.46.17 6.63-3.56.64-5.98.8-2.42.17-6.3.17-9.45 0-13.37-4.57-3.92-4.56-3.92-12.72l.09-13.65q-3.8.16-7.92.49v-14.3q4.2 0 7.11-2.67 2.91-2.66 3.47-6.38h21.97q-4.12 5.66-9.13 9.05Zm54.04 23.75h-36.34q.65 3.55 3.19 5.77t7.23 2.22q3.39 0 6.38-1.33t4.76-3.76q5.42 2.67 14.38 5.74-2.5 5.65-9.09 9-6.58 3.36-17.16 3.36-13.73 0-20.31-6.35-6.58-6.34-6.58-16.67 0-10.1 6.54-16.4t20.35-6.3q8.24 0 14.3 2.75 6.05 2.74 9.29 7.63 3.23 4.89 3.23 11.19 0 2.1-.17 3.15m-25.52-12.52q-4.04 0-6.62 1.53-2.59 1.54-3.64 4.2h19.07q-.97-2.58-3.15-4.16-2.19-1.57-5.66-1.57"/><path fill="#232323" d="m1210.56 24.142-16.31 21.48 16.96 22.62h-20.03q-1.53-3.07-5.65-8.97l-1.86-2.66q-.49.72-1.09 1.53-.61.81-1.17 1.78-1.62 2.26-3.03 4.44-1.42 2.18-2.3 3.88h-20.03l16.96-22.62-16.32-21.48h19.95q1.13 2.26 4.36 7.02l2.67 4.04 2.26-3.47q3.39-5.09 4.68-7.59Z"/><g fill="none" stroke="#232323" stroke-width="3.5" paint-order="stroke"><path d="M808.963 18.98a54.826 26.52 0 1 0 0 53.04 54.826 26.52 0 1 0 0-53.04Z" vector-effect="non-scaling-stroke"/><path d="M831.722 44.699a26.52 54.826 0 1 0-53.04 0 26.52 54.826 0 1 0 53.04 0Z" vector-effect="non-scaling-stroke"/><path d="M825.364 27.083a53.679 25.965 45 1 0-36.72 36.72 53.679 25.965 45 1 0 36.72-36.72Z" vector-effect="non-scaling-stroke"/><path d="M822.819 61.272a25.965 53.679 45 1 0-36.72-36.72 25.965 53.679 45 1 0 36.72 36.72Z" vector-effect="non-scaling-stroke"/><path d="m807.753 23.247 2.84 10.55a10.8 10.8 0 0 0 7.61 7.61l10.552 2.842-10.55 2.841a10.8 10.8 0 0 0-7.61 7.61l-2.843 10.552-2.841-10.55a10.8 10.8 0 0 0-7.61-7.61l-10.55-2.844 10.55-2.841a10.8 10.8 0 0 0 7.61-7.61Z" vector-effect="non-scaling-stroke"/></g><rect width="86.714" height="93.79" x="726.241" y="-65.006" fill="none" rx="0" ry="0" transform="matrix(.97 0 0 .97 518.3 60.92)"/><path fill="#282828" d="M1277.85 68.242h-13.17l-4.18-13.73h-21.02l-4.18 13.73h-13.17l20.35-57.9h14.94Zm-35.29-23.98h15.02l-4.18-13.41q-.39-1.34-1.04-3.45t-1.31-4.3q-.65-2.19-1.04-3.8-.39 1.61-1.08 4-.69 2.38-1.33 4.51l-.9 3.04Zm41.61-20.12h12.03v44.09h-12.03Zm6.04-17.28q2.68 0 4.61 1.24 1.93 1.25 1.93 4.64 0 3.35-1.93 4.63t-4.61 1.28q-2.72 0-4.64-1.28-1.91-1.28-1.91-4.63 0-3.39 1.91-4.64 1.92-1.24 4.64-1.24"/></g><path fill="transparent" stroke="transparent" stroke-width=".83" d="M773.215 6.022h458.934v75.52H773.215z"/></g></svg>